# xmcd
#
# Track frame offsets:
#	150
#	12595
#	28847
#	45152
#	57097
#	70375
#	86895
#	101370
#	117947
#	132245
#	144962
#	159180
#	171692
#	187947
#
# Disc length: 2684 seconds
#
# Revision: 1
# Processed by: cddbd v1.5.2PL0 Copyright (c) Steve Scherf et al.
# Submitted via: audiograbber 1.83.01
#
DISCID=b90a7a0e
DTITLE=ADILSON RAMOS - PELO AMOR DE UMA MULHER
DYEAR=2005
DGENRE=Miscellaneous
TTITLE0=VERÔNICA
TTITLE1=TELEFONEMA
TTITLE2=PELO AMOR DE UMA MULHER
TTITLE3=ESTOU PENSADO EM TI-ONDE ESTÁS AGORA
TTITLE4=NO TOCA-FITAS DO MEU CARRO
TTITLE5=EU ME ENCONTREI EM VOCÊ
TTITLE6=APARÊNCIAS
TTITLE7=COISA DE NÓS DOIS
TTITLE8=SOMBRAS
TTITLE9=QUE SERÁ
TTITLE10=VOU SEGUIR MEU CORAÇÃO
TTITLE11=BEIJO GELADO
TTITLE12=EMBAIXO DOS LENÇÓIS
TTITLE13=QUEM EU QUERO NÃO ME QUER
EXTD=
EXTT0=
EXTT1=
EXTT2=
EXTT3=
EXTT4=
EXTT5=
EXTT6=
EXTT7=
EXTT8=
EXTT9=
EXTT10=
EXTT11=
EXTT12=
EXTT13=
PLAYORDER=
